<svg width="48" height="48" viewBox="0 0 48 48" fill="none" xmlns="http://www.w3.org/2000/svg">
<path d="M23.7103 4C24.0689 4 24.4275 4.07855 24.755 4.22781L39.4347 10.5043C41.1499 11.2349 42.4284 12.9395 42.4206 14.9976C42.3816 22.7903 39.2009 37.0479 25.7684 43.5287C24.4665 44.1571 22.9541 44.1571 21.6522 43.5287C8.21976 37.0479 5.03902 22.7903 5.00004 14.9976C4.99224 12.9395 6.27078 11.2349 7.98588 10.5043L22.6735 4.22781C22.9931 4.07855 23.3517 4 23.7103 4ZM23.7103 9.24745L10.3037 14.512C10.3037 20.1489 11.6748 24.0982 11.6748 24.0982H23.7103V38.9489C34.4687 33.6936 35.1364 24.0982 35.1364 24.0982H23.7103V9.24745Z" fill="white"/>
</svg>
