<svg width="110" height="110" viewBox="0 0 110 110" fill="none" xmlns="http://www.w3.org/2000/svg">
<g clip-path="url(#clip0_1086_352)">
<path d="M110 55C110 24.6243 85.3757 0 55 0C24.6243 0 0 24.6243 0 55C0 85.3757 24.6243 110 55 110C85.3757 110 110 85.3757 110 55Z" fill="#378FE9"></path>
<path d="M49.8643 14.2866C50.298 14.2434 51.7479 14.0848 53.416 14.8696C55.0786 15.652 56.4078 17.093 57.4053 19.0864L58.2949 20.9067L58.2959 20.9087C59.3903 23.1773 60.3378 25.1157 61.5977 26.8101L61.8545 27.146L61.8555 27.148C63.1381 28.7851 64.5333 30.3754 65.9521 31.938L67.376 33.4927L67.3809 33.4985C68.304 34.5039 69.2327 35.5038 70.1719 36.5161C73.5668 40.1733 77.1862 44.07 80.4834 48.1704H82.0371C84.4249 48.1705 86.7031 49.4517 87.8926 51.5903L88.0049 51.8003C92.9344 61.479 93.0057 71.374 88.4443 81.5923L87.9883 82.5816C86.8695 84.9389 84.4807 86.3853 81.9355 86.3853H68.3994L62.3994 88.437C58.8583 89.6478 55.1409 90.2651 51.3984 90.2651H36.9678C33.659 90.2651 30.3859 88.6703 28.5664 85.7671C27.4907 84.0501 26.9971 81.9634 27.3936 79.9351C26.8053 79.6055 26.2613 79.1955 25.7764 78.7114C24.4857 77.4227 23.716 75.7142 23.625 73.8872L23.6162 73.521L23.6211 73.2427C23.6633 72.1124 23.9621 71.0306 24.4727 70.0669C22.1191 68.6159 20.5488 66.0144 20.5488 63.0503C20.5489 61.3485 21.0746 59.7153 22.0264 58.3482C19.7522 56.8155 18.254 54.2174 18.2539 51.272V51.1089C18.2539 48.7731 19.1674 46.554 20.8223 44.9009L20.8232 44.8989C22.4608 43.2651 24.6534 42.3628 26.9629 42.3628H49.1943C44.7337 34.2734 42.5087 26.5638 43.623 20.0698C44.1569 16.9462 46.785 14.6101 49.8428 14.2886L49.8643 14.2866ZM24.8105 57.7241C24.8122 57.7388 24.8139 57.7492 24.8145 57.7534C24.8113 57.7202 24.8074 57.6833 24.8047 57.6431C24.8063 57.6721 24.8086 57.6991 24.8105 57.7241Z" fill="#004182"></path>
<path d="M84.3749 80.8661C83.9369 81.7891 82.9799 82.3851 81.9359 82.3851H68.0019C67.8229 82.3851 67.6449 82.4151 67.4759 82.4731L61.1049 84.6515C57.9803 85.7199 54.7008 86.2651 51.3987 86.2651H36.9679C34.8909 86.2651 32.9699 85.2601 31.9559 83.6421C31.0769 82.2391 31.0269 80.7011 31.8149 79.5051C31.8239 79.4941 31.8279 79.4781 31.8369 79.4661C31.9339 79.3411 32.0139 79.2041 32.0709 79.0541C32.0799 79.0311 32.0849 79.0071 32.0929 78.9831C32.1459 78.8221 32.1819 78.6521 32.1819 78.4721C32.1819 78.3621 32.1699 78.2551 32.1489 78.1511C32.1419 78.1171 32.1279 78.0851 32.1189 78.0511C32.1009 77.9831 32.0829 77.9161 32.0569 77.8521C32.0409 77.8141 32.0189 77.7801 32.0009 77.7431C31.9729 77.6881 31.9459 77.6321 31.9119 77.5811C31.8879 77.5451 31.8589 77.5131 31.8319 77.4791C31.7959 77.4331 31.7609 77.3861 31.7199 77.3441C31.6889 77.3111 31.6529 77.2841 31.6189 77.2541C31.5759 77.2171 31.5339 77.1791 31.4879 77.1461C31.4499 77.1191 31.4089 77.0981 31.3689 77.0741C31.3209 77.0461 31.2729 77.0181 31.2219 76.9941C31.1789 76.9741 31.1329 76.9601 31.0879 76.9441C31.0349 76.9251 30.9829 76.9071 30.9279 76.8941C30.8799 76.8831 30.8309 76.8771 30.7819 76.8691C30.7439 76.8641 30.7089 76.8531 30.6699 76.8501C29.8859 76.7841 29.1719 76.4491 28.6019 75.8801C27.9659 75.2451 27.6159 74.4071 27.6159 73.5201C27.6159 72.1551 28.4269 70.9371 29.6809 70.4161C29.6829 70.4151 29.6839 70.4141 29.6859 70.4141C29.7849 70.3721 29.8799 70.3221 29.9669 70.2621C30.0149 70.2301 30.0549 70.1901 30.0979 70.1541C30.1349 70.1231 30.1749 70.0951 30.2099 70.0611C30.2509 70.0201 30.2839 69.9731 30.3199 69.9281C30.3499 69.8911 30.3829 69.8571 30.4089 69.8171C30.4359 69.7761 30.4559 69.7311 30.4789 69.6881C30.5059 69.6391 30.5359 69.5911 30.5579 69.5391C30.5799 69.4861 30.5929 69.4291 30.6089 69.3731C30.6219 69.3281 30.6409 69.2851 30.6499 69.2391C30.6719 69.1341 30.6819 69.0261 30.6819 68.9171V68.9141C30.6819 68.8921 30.6759 68.8711 30.6749 68.8481C30.6719 68.7641 30.6659 68.6801 30.6499 68.5961C30.6329 68.5111 30.6049 68.4301 30.5759 68.3501C30.5689 68.3301 30.5659 68.3101 30.5579 68.2901L30.5569 68.2881C30.5149 68.1871 30.4639 68.0921 30.4029 68.0031C30.3779 67.9661 30.3469 67.9361 30.3189 67.9021C30.2809 67.8551 30.2449 67.8051 30.2019 67.7621C30.1619 67.7221 30.1149 67.6901 30.0719 67.6541C30.0339 67.6231 29.9989 67.5891 29.9589 67.5621C29.9169 67.5341 29.8699 67.5131 29.8249 67.4891C29.7769 67.4631 29.7319 67.4341 29.6819 67.4131C29.6189 67.3871 29.5529 67.3711 29.4869 67.3521C29.4509 67.3421 29.4179 67.3271 29.3819 67.3201C29.2759 67.2981 29.1669 67.2871 29.0579 67.2871H28.7859C26.4489 67.2871 24.5489 65.3861 24.5489 63.0501C24.5489 61.9271 24.9899 60.8631 25.7759 60.0681C26.2899 59.5621 26.9289 59.1881 27.6239 58.9871C27.6519 58.9791 27.6759 58.9651 27.7029 58.9551C27.7599 58.9351 27.8159 58.9131 27.8709 58.8881C27.9159 58.8671 27.9589 58.8421 28.0009 58.8171C28.0479 58.7891 28.0929 58.7601 28.1369 58.7281C28.1789 58.6971 28.2189 58.6631 28.2579 58.6281C28.2959 58.5931 28.3329 58.5581 28.3679 58.5201C28.4039 58.4811 28.4369 58.4411 28.4679 58.3991C28.4989 58.3571 28.5289 58.3151 28.5559 58.2701C28.5829 58.2261 28.6069 58.1811 28.6299 58.1341C28.6529 58.0871 28.6739 58.0391 28.6919 57.9901C28.7109 57.9391 28.7259 57.8881 28.7399 57.8361C28.7519 57.7881 28.7639 57.7401 28.7719 57.6901C28.7819 57.6311 28.7869 57.5721 28.7899 57.5121C28.7919 57.4831 28.7989 57.4561 28.7989 57.4261C28.7989 57.4061 28.7939 57.3871 28.7929 57.3671C28.7909 57.3111 28.7839 57.2541 28.7759 57.1971C28.7679 57.1421 28.7589 57.0871 28.7459 57.0341C28.7409 57.0141 28.7409 56.9941 28.7349 56.9741C28.7269 56.9451 28.7119 56.9191 28.7019 56.8911C28.6829 56.8361 28.6619 56.7821 28.6369 56.7301C28.6139 56.6831 28.5889 56.6381 28.5629 56.5931C28.5369 56.5491 28.5089 56.5061 28.4789 56.4651C28.4449 56.4191 28.4089 56.3751 28.3699 56.3331C28.3389 56.2991 28.3079 56.2671 28.2749 56.2361C28.2299 56.1951 28.1839 56.1571 28.1349 56.1211C28.1009 56.0961 28.0659 56.0721 28.0299 56.0491C27.9759 56.0151 27.9209 55.9861 27.8639 55.9591C27.8279 55.9421 27.7919 55.9261 27.7549 55.9121C27.6919 55.8881 27.6279 55.8681 27.5619 55.8521C27.5259 55.8431 27.4909 55.8351 27.4539 55.8281C27.3839 55.8161 27.3129 55.8091 27.2409 55.8071C27.2179 55.8061 27.1969 55.8001 27.1739 55.8001H26.7839C24.2859 55.8001 22.2539 53.7681 22.2539 51.2711V51.1081C22.2539 49.8271 22.7499 48.6281 23.6489 47.7301C24.5339 46.8471 25.7089 46.3621 26.9629 46.3621C26.9679 46.3621 26.9729 46.3621 26.9779 46.3621H53.3429C53.9329 46.3621 54.4769 46.0411 54.7639 45.5251C55.0509 45.0091 55.0339 44.3781 54.7219 43.8761C49.0159 34.7221 46.5399 26.7251 47.5659 20.7461C47.7859 19.4511 48.9199 18.4071 50.2609 18.2661C50.7929 18.2131 52.4109 18.0421 53.8289 20.8771C54.1219 21.4621 54.4069 22.0541 54.6929 22.6461C55.8309 25.0051 57.0059 27.4451 58.7069 29.6141C60.5269 31.9371 62.5359 34.1431 64.4349 36.2031C65.3669 37.2181 66.3039 38.2271 67.2409 39.2371C70.9049 43.1841 74.6939 47.2661 78.0609 51.5491C78.3689 51.9421 78.8399 52.1701 79.3389 52.1701H82.0369C83.0499 52.1701 83.9929 52.7371 84.4409 53.6161C88.9229 62.4161 88.9019 71.3281 84.3749 80.8661Z" fill="#D0E8FF"></path>
<path d="M59 42.5508C60.0217 42.5508 60.8496 43.4012 60.8496 44.4508C60.8496 45.5003 60.0217 46.3508 59 46.3508H47V42.5508H59Z" fill="#004182"></path>
</g>
<defs>
<clipPath id="clip0_1086_352">
<rect width="110" height="110" fill="white"></rect>
</clipPath>
</defs>
</svg>